<?xml version="1.0" encoding="UTF-8"?><svg id="Capa_2" xmlns="http://www.w3.org/2000/svg" viewBox="0 0 400 96.69"><defs><style>.cls-1{fill:#fff;}</style></defs><g id="Capa_1-2"><path class="cls-1" d="M390.7,46.3v-28.69c0-4.05-.84-7.01-2.52-8.91-1.68-1.89-4.07-2.84-7.17-2.84h-.55c-2.36,0-4.55.64-6.54,1.93-2,1.29-4.33,3.48-7.01,6.58l-20.41,23.41c-1.31,1.47-2.27,2.86-2.88,4.18-.6,1.31-.91,2.68-.91,4.1,0,2.31.76,4.27,2.29,5.87,1.52,1.6,4.05,2.4,7.57,2.4h29.08v11.66h9.06v-11.66h9.3v-8.04h-9.3ZM381.64,46.3h-27.11c-.84,0-1.45-.16-1.81-.47-.37-.32-.55-.76-.55-1.34,0-.47.09-.87.28-1.18.18-.32.49-.71.91-1.18l23.01-26.01c.52-.63,1.04-1.14,1.54-1.54.5-.39,1.06-.59,1.69-.59.79,0,1.33.21,1.62.63.29.42.43,1.05.43,1.89v29.79Z"/><polygon class="cls-1" points="0 64.99 46.81 64.99 46.81 57.2 8.96 57.2 8.96 39.21 46.81 39.21 46.81 31.42 8.96 31.42 8.96 14.36 46.81 14.36 46.81 6.57 0 6.57 0 64.99"/><path class="cls-1" d="M129.66,61.41c3.48,3.06,9.01,4.6,16.59,4.6h2.82c8,0,13.76-1.53,17.29-4.6,3.53-3.06,5.3-7.92,5.3-14.57V6.57h-8.96v40.89c0,3.64-.95,6.34-2.84,8.1-1.9,1.77-4.69,2.65-8.37,2.65h-6.72c-3.89,0-6.76-.88-8.61-2.65-1.84-1.76-2.77-4.47-2.77-8.1V6.57h-8.96v40.27c0,6.65,1.74,11.5,5.22,14.57Z"/><rect class="cls-1" x="182.08" y="6.57" width="8.96" height="58.42"/><path class="cls-1" d="M250.71,34.11c1.17-2.1,1.75-4.74,1.75-7.91v-3.43c0-3.17-.58-5.8-1.75-7.91-1.17-2.1-2.74-3.76-4.71-4.99-1.97-1.22-4.25-2.08-6.82-2.57-2.57-.49-5.26-.74-8.06-.74h-29.76v58.42h8.96v-22.59h20.8c2.8,0,5.49-.25,8.06-.74,2.57-.49,4.84-1.35,6.82-2.57,1.97-1.22,3.54-2.88,4.71-4.99ZM243.11,26.36c0,2.8-.77,4.88-2.3,6.23-1.53,1.35-4.3,2.03-8.3,2.03h-22.2V14.36h22.2c4,0,6.76.68,8.3,2.03,1.53,1.35,2.3,3.43,2.3,6.23v3.74Z"/><path class="cls-1" d="M334.79,25.29l-3.54-8.65c-1.48-3.6-3.28-6.67-5.41-9.19-2.13-2.52-4.58-4.42-7.35-5.7-2.77-1.28-5.88-1.85-9.34-1.73-3.46.13-7.25,1.04-11.38,2.73l-24.73,10.13c-4.13,1.69-7.49,3.71-10.06,6.06-2.57,2.35-4.4,4.95-5.47,7.8-.04.11-.07.22-.11.33l43.83-17.96c2.45-1.01,5.27.17,6.28,2.63l.5,1.23c1.01,2.45-.17,5.27-2.63,6.28l-26.84,11c-.75.31-1.11,1.17-.8,1.91l.57,1.4c.31.75,1.17,1.11,1.91.8l26.84-11c2.45-1.01,5.27.17,6.28,2.63l.38.92c1.01,2.45-.17,5.27-2.63,6.28l-27.24,11.17c-.75.31-1.11,1.17-.8,1.91l.36.88c.31.75,1.17,1.11,1.91.8l27.84-11.41c2.45-1.01,5.27.16,6.27,2.61l.33.8c1.01,2.45-.17,5.27-2.63,6.28l-27.64,11.33c-.75.31-1.11,1.17-.8,1.91l.49,1.2c.31.75,1.17,1.11,1.91.8l45.52-18.66.13-.05c.65-2.33.82-4.58.61-7.2-.25-3.29-1.11-6.71-2.57-10.27Z"/><path class="cls-1" d="M286.1,61.93l-.49-1.2c-1.01-2.45.17-5.27,2.63-6.28l27.64-11.33c.75-.31,1.11-1.17.8-1.91l-.33-.8c-.31-.75-1.14-1.09-1.91-.78l-27.84,11.41c-2.45,1.01-5.27-.17-6.28-2.63l-.36-.88c-1.01-2.45.17-5.27,2.63-6.28l27.24-11.17c.75-.31,1.11-1.17.8-1.91l-.38-.92c-.31-.75-1.17-1.11-1.91-.8l-26.84,11c-2.45,1.01-5.27-.17-6.28-2.63l-.57-1.4c-1.01-2.45.17-5.27,2.63-6.28l26.84-11c.75-.31,1.11-1.17.8-1.91l-.5-1.23c-.31-.75-1.17-1.11-1.91-.8l-46.07,18.88c-.21,1.56-.25,3.18-.11,4.86.28,3.28,1.16,6.72,2.63,10.33l3.54,8.65c1.46,3.56,3.24,6.6,5.34,9.13,2.1,2.53,4.54,4.43,7.3,5.68,2.76,1.26,5.88,1.83,9.37,1.71,3.49-.11,7.3-1.01,11.43-2.71l24.73-10.13c4.13-1.69,7.47-3.72,10.01-6.08,1.82-1.69,3.26-3.51,4.34-5.44l-42.64,17.48c-2.45,1.01-5.27-.17-6.28-2.63Z"/><polygon class="cls-1" points="202.67 93.52 204.19 93.52 204.19 88.24 209.05 88.24 209.05 86.96 204.19 86.96 204.19 82.98 209.93 82.98 209.93 81.7 202.67 81.7 202.67 93.52"/><path class="cls-1" d="M216.49,84.55c-2.31,0-4.32,1.68-4.32,4.61s2.02,4.58,4.32,4.58,4.32-1.68,4.32-4.58-2.02-4.61-4.32-4.61ZM216.49,92.49c-1.68,0-2.79-1.33-2.79-3.33s1.12-3.37,2.79-3.37,2.79,1.35,2.79,3.37-1.12,3.33-2.79,3.33Z"/><path class="cls-1" d="M229.32,92.51c-1.69,0-2.22-.81-2.22-2.38v-4.16h4.29v-1.21h-4.29v-2.81h-1.24l-.2,2.81-2.54.09v1.12h2.49v4.14c0,2.16.83,3.62,3.39,3.62,1.1,0,1.95-.23,2.74-.52l-.32-1.1c-.63.23-1.28.4-2.09.4Z"/><path class="cls-1" d="M238.11,84.55c-2.31,0-4.32,1.68-4.32,4.61s2.02,4.58,4.32,4.58,4.32-1.68,4.32-4.58-2.02-4.61-4.32-4.61ZM238.11,92.49c-1.68,0-2.79-1.33-2.79-3.33s1.12-3.37,2.79-3.37,2.79,1.35,2.79,3.37-1.12,3.33-2.79,3.33Z"/><path class="cls-1" d="M247.55,86.84h-.04l-.14-2.07h-1.24v8.76h1.5v-5.12c1.04-1.84,2.29-2.5,3.6-2.5.68,0,1.01.09,1.62.29l.34-1.28c-.54-.27-1.08-.36-1.73-.36-1.62,0-2.99.86-3.91,2.29Z"/><path class="cls-1" d="M260.02,84.55c-2.34,0-4.47,1.73-4.47,4.58s2.09,4.61,4.72,4.61c1.41,0,2.52-.47,3.39-1.04l-.54-.97c-.79.5-1.62.83-2.67.83-1.82,0-3.23-1.01-3.4-2.99h6.9c.04-.23.07-.56.07-.9,0-2.47-1.48-4.11-4-4.11ZM260.05,85.72c1.49,0,2.48.89,2.61,2.68h-5.59c.27-1.73,1.54-2.68,2.97-2.68Z"/><path class="cls-1" d="M271.01,88.42c-1.8-.38-2.56-.7-2.56-1.46,0-.67.54-1.26,2.02-1.26,1.12,0,2.13.36,2.94.92l.72-.95c-.86-.59-2.2-1.12-3.53-1.12-2.4,0-3.64,1.08-3.64,2.49,0,1.32,1.14,2.09,3.42,2.56,2.38.49,2.72.95,2.72,1.62,0,.74-.72,1.35-2.2,1.35-1.6,0-2.79-.47-3.8-1.19l-.68.99c1.06.74,2.59,1.37,4.31,1.37,2.5,0,3.89-1.19,3.89-2.61s-.7-2.07-3.6-2.7Z"/><polygon class="cls-1" points="277.56 85.97 281.62 85.97 281.62 93.52 283.11 93.52 283.11 84.76 277.56 84.76 277.56 85.97"/><path class="cls-1" d="M282.21,80.62c-.68,0-1.19.47-1.19,1.15s.5,1.15,1.19,1.15,1.19-.45,1.19-1.15-.5-1.15-1.19-1.15Z"/><path class="cls-1" d="M292.63,88.42c-1.8-.38-2.56-.7-2.56-1.46,0-.67.54-1.26,2.02-1.26,1.12,0,2.13.36,2.94.92l.72-.95c-.86-.59-2.2-1.12-3.53-1.12-2.4,0-3.64,1.08-3.64,2.49,0,1.32,1.14,2.09,3.42,2.56,2.38.49,2.72.95,2.72,1.62,0,.74-.72,1.35-2.2,1.35-1.6,0-2.79-.47-3.8-1.19l-.68.99c1.06.74,2.59,1.37,4.31,1.37,2.5,0,3.89-1.19,3.89-2.61s-.7-2.07-3.6-2.7Z"/><path class="cls-1" d="M304.98,92.51c-1.69,0-2.22-.81-2.22-2.38v-4.16h4.29v-1.21h-4.29v-2.81h-1.24l-.2,2.81-2.54.09v1.12h2.49v4.14c0,2.16.83,3.62,3.39,3.62,1.1,0,1.95-.23,2.74-.52l-.32-1.1c-.63.23-1.28.4-2.09.4Z"/><path class="cls-1" d="M313.78,84.55c-2.31,0-4.32,1.68-4.32,4.61s2.02,4.58,4.32,4.58,4.32-1.68,4.32-4.58-2.02-4.61-4.32-4.61ZM313.78,92.49c-1.68,0-2.79-1.33-2.79-3.33s1.12-3.37,2.79-3.37,2.79,1.35,2.79,3.37-1.12,3.33-2.79,3.33Z"/><path class="cls-1" d="M323.22,86.84h-.04l-.14-2.07h-1.24v8.76h1.5v-5.12c1.04-1.84,2.29-2.5,3.6-2.5.68,0,1.01.09,1.62.29l.34-1.28c-.54-.27-1.08-.36-1.73-.36-1.62,0-2.99.86-3.91,2.29Z"/><path class="cls-1" d="M349.41,81.09l-.83-.76c-2.5,1.95-4.04,4.7-4.04,8.18s1.53,6.23,4.04,8.18l.83-.76c-2.41-2.04-3.53-4.4-3.53-7.42s1.12-5.39,3.53-7.42Z"/><polygon class="cls-1" points="355.52 81.7 354.02 81.7 354.02 93.52 361.36 93.52 361.36 92.24 355.52 92.24 355.52 81.7"/><path class="cls-1" d="M366.9,81.7h-2.92v11.82h2.99c3.48,0,5.41-2.2,5.41-5.96s-1.93-5.86-5.48-5.86ZM366.8,92.28h-1.3v-9.33h1.3c2.68,0,4.02,1.64,4.02,4.61s-1.33,4.72-4.02,4.72Z"/><path class="cls-1" d="M382.85,85.03c0-2.47-1.75-3.33-4.14-3.33h-3.69v11.82h1.53v-4.99h2.09l2.84,4.99h1.71l-3-5.16c1.6-.4,2.66-1.49,2.66-3.33ZM376.54,82.93h1.95c1.84,0,2.85.56,2.85,2.11s-1.01,2.27-2.85,2.27h-1.95v-4.38Z"/><path class="cls-1" d="M387.06,80.33l-.83.76c2.41,2.04,3.53,4.4,3.53,7.42s-1.12,5.39-3.53,7.42l.83.76c2.5-1.95,4.04-4.7,4.04-8.18s-1.53-6.23-4.04-8.18Z"/><path class="cls-1" d="M96.35,64.91c6.3-1.03,10.98-3.61,14.03-7.73,3.33-4.49,4.99-10.19,4.99-17.1v-9.28c0-3.87-.5-7.36-1.51-10.48-1.01-3.12-2.54-5.79-4.6-8.01-2.06-2.22-4.71-3.92-7.93-5.11-3.22-1.19-7.05-1.78-11.49-1.78h-7.74c-4.44,0-8.28.59-11.53,1.78-3.25,1.19-5.91,2.89-7.97,5.11-2.06,2.22-3.59,4.89-4.56,8.01-.98,3.12-1.47,6.62-1.47,10.48v9.28c0,3.82.49,7.29,1.47,10.41.98,3.12,2.5,5.78,4.56,7.97,2.06,2.19,4.72,3.89,7.97,5.11,3.25,1.21,7.09,1.82,11.53,1.82h2.32l8.9,10.68,12.33,15.54h85.4v-9.01h-80.29l-14.4-17.68ZM91,57.64h-10.06c-5.26,0-9.03-1.29-11.3-3.87-2.27-2.58-3.4-6.45-3.4-11.61v-13.54c0-5.21,1.13-9.09,3.4-11.64,2.27-2.55,6.04-3.83,11.3-3.83h10.06c5.31,0,9.09,1.28,11.33,3.83,2.24,2.55,3.37,6.43,3.37,11.64v13.54c0,5.16-1.12,9.03-3.37,11.61-2.24,2.58-6.02,3.87-11.33,3.87Z"/></g></svg>